<?xml version="1.0" encoding="UTF-8"?>
<svg width="100px" height="100px" viewBox="0 0 100 100" version="1.1" xmlns="http://www.w3.org/2000/svg">
    <title>Keyboard Logo</title>
    <g stroke="none" stroke-width="1" fill="none" fill-rule="evenodd">
        <circle fill="#3498DB" cx="50" cy="50" r="50"></circle>
        <g transform="translate(15.000000, 30.000000)">
            <rect stroke="#FFFFFF" stroke-width="2" fill="#2C3E50" x="0" y="0" width="70" height="40" rx="5"></rect>
            <rect fill="#FFFFFF" x="5" y="5" width="8" height="8" rx="1"></rect>
            <rect fill="#FFFFFF" x="16" y="5" width="8" height="8" rx="1"></rect>
            <rect fill="#FFFFFF" x="27" y="5" width="8" height="8" rx="1"></rect>
            <rect fill="#FFFFFF" x="38" y="5" width="8" height="8" rx="1"></rect>
            <rect fill="#FFFFFF" x="49" y="5" width="8" height="8" rx="1"></rect>
            <rect fill="#FFFFFF" x="60" y="5" width="8" height="8" rx="1"></rect>
            <rect fill="#FFFFFF" x="8" y="16" width="8" height="8" rx="1"></rect>
            <rect fill="#FFFFFF" x="19" y="16" width="8" height="8" rx="1"></rect>
            <rect fill="#FFFFFF" x="30" y="16" width="8" height="8" rx="1"></rect>
            <rect fill="#FFFFFF" x="41" y="16" width="8" height="8" rx="1"></rect>
            <rect fill="#FFFFFF" x="52" y="16" width="8" height="8" rx="1"></rect>
            <rect fill="#FFFFFF" x="10" y="27" width="50" height="8" rx="1"></rect>
        </g>
    </g>
</svg>
